<svg xmlns="http://www.w3.org/2000/svg" width="384.072" height="172.028" viewBox="0 0 384.072 172.028">
  <path id="Tracé_32" data-name="Tracé 32" d="M869.575,282.048a48.113,48.113,0,0,0-24.679,6.774,48.2,48.2,0,0,0-63.988-42.308,56.528,56.528,0,0,0-53.988-39.783c-1.907,0-3.784.123-5.644.307a56.5,56.5,0,0,0-50.32,39.374,48.208,48.208,0,0,0-64.061,42.282,48.356,48.356,0,1,0-24.679,89.94,49.077,49.077,0,0,0,5.27-.292h74.269a56.735,56.735,0,0,0,6.608.418q2.921,0,5.77-.289H780.175c1.083.061,2.155.164,3.253.164s2.17-.1,3.25-.164H864.3a49.083,49.083,0,0,0,5.27.289,48.355,48.355,0,0,0,0-96.711Z" transform="translate(-533.858 -206.731)" fill="#fff"/>
</svg>
