<svg xmlns="http://www.w3.org/2000/svg" width="142.441" height="63.8" viewBox="0 0 142.441 63.8">
  <path id="Tracé_34" data-name="Tracé 34" d="M658.365,234.664a17.844,17.844,0,0,0-9.152,2.512,17.877,17.877,0,0,0-23.731-15.691,20.964,20.964,0,0,0-20.022-14.754c-.707,0-1.4.045-2.093.114a20.955,20.955,0,0,0-18.662,14.6,17.879,17.879,0,0,0-23.758,15.681,17.934,17.934,0,1,0-9.153,33.356,18.2,18.2,0,0,0,1.955-.108h27.544a21.035,21.035,0,0,0,2.451.155q1.083,0,2.14-.107H625.21c.4.023.8.061,1.206.061s.8-.038,1.205-.061h28.789a18.2,18.2,0,0,0,1.954.107,17.934,17.934,0,1,0,0-35.867Z" transform="translate(-533.858 -206.731)" fill="#fff"/>
</svg>
