<svg xmlns="http://www.w3.org/2000/svg" width="141.315" height="79.367" viewBox="0 0 141.315 79.367">
  <path id="Tracé_24" data-name="Tracé 24" d="M48.567,286.562a22.221,22.221,0,0,0-11.394,3.127,22.319,22.319,0,0,0-30.42-19.234,26.1,26.1,0,0,0-25-18.608,26.09,26.09,0,0,0-26.09,26.09c0,.368.013.734.028,1.1h-.028a26.09,26.09,0,0,0-26.09,26.09,26.09,26.09,0,0,0,26.09,26.09,26.365,26.365,0,0,0,2.665-.135h87.8a22.564,22.564,0,0,0,2.434.135,22.326,22.326,0,0,0,0-44.652Z" transform="translate(70.422 -251.847)" fill="#fff"/>
</svg>
